<svg width="300" height="150" viewBox="0 0 300 150" fill="none" xmlns="http://www.w3.org/2000/svg">
<path fill-rule="evenodd" clip-rule="evenodd" d="M84 19C56.3858 19 34 41.3858 34 69C34 96.6142 56.3858 119 84 119V19Z" fill="#DA3C3C"/>
<path d="M84 20.5566L126.464 113.524" stroke="#401212" stroke-width="8"/>
<path d="M140.591 21.6109L127 114.599" stroke="#401212" stroke-width="8"/>
<path d="M83 19L83.9998 118.96" stroke="#401212" stroke-width="8"/>
<g filter="url(#filter0_d)">
<path d="M165.438 95.2812H147.438V107.469H168.562V115H138.062V69.5H168.5V77.0938H147.438V87.9375H165.438V95.2812ZM209.5 101.875L215.625 69.5H224.969L214.875 115H205.438L198.031 84.5625L190.625 115H181.188L171.094 69.5H180.438L186.594 101.812L194.094 69.5H202.031L209.5 101.875ZM253.656 103.062C253.656 101.292 253.031 99.9375 251.781 99C250.531 98.0417 248.281 97.0417 245.031 96C241.781 94.9375 239.208 93.8958 237.312 92.875C232.146 90.0833 229.562 86.3229 229.562 81.5938C229.562 79.1354 230.25 76.9479 231.625 75.0312C233.021 73.0938 235.01 71.5833 237.594 70.5C240.198 69.4167 243.115 68.875 246.344 68.875C249.594 68.875 252.49 69.4688 255.031 70.6562C257.573 71.8229 259.542 73.4792 260.938 75.625C262.354 77.7708 263.062 80.2083 263.062 82.9375H253.688C253.688 80.8542 253.031 79.2396 251.719 78.0938C250.406 76.9271 248.562 76.3438 246.188 76.3438C243.896 76.3438 242.115 76.8333 240.844 77.8125C239.573 78.7708 238.938 80.0417 238.938 81.625C238.938 83.1042 239.677 84.3438 241.156 85.3438C242.656 86.3438 244.854 87.2812 247.75 88.1562C253.083 89.7604 256.969 91.75 259.406 94.125C261.844 96.5 263.062 99.4583 263.062 103C263.062 106.938 261.573 110.031 258.594 112.281C255.615 114.51 251.604 115.625 246.562 115.625C243.062 115.625 239.875 114.99 237 113.719C234.125 112.427 231.927 110.667 230.406 108.438C228.906 106.208 228.156 103.625 228.156 100.688H237.562C237.562 105.708 240.562 108.219 246.562 108.219C248.792 108.219 250.531 107.771 251.781 106.875C253.031 105.958 253.656 104.688 253.656 103.062Z" fill="#DA3C3C"/>
</g>
<defs>
<filter id="filter0_d" x="134.062" y="68.875" width="133" height="54.75" filterUnits="userSpaceOnUse" color-interpolation-filters="sRGB">
<feFlood flood-opacity="0" result="BackgroundImageFix"/>
<feColorMatrix in="SourceAlpha" type="matrix" values="0 0 0 0 0 0 0 0 0 0 0 0 0 0 0 0 0 0 127 0"/>
<feOffset dy="4"/>
<feGaussianBlur stdDeviation="2"/>
<feColorMatrix type="matrix" values="0 0 0 0 0 0 0 0 0 0 0 0 0 0 0 0 0 0 0.25 0"/>
<feBlend mode="normal" in2="BackgroundImageFix" result="effect1_dropShadow"/>
<feBlend mode="normal" in="SourceGraphic" in2="effect1_dropShadow" result="shape"/>
</filter>
</defs>
</svg>
